<?xml version="1.0" encoding="UTF-8"?>
<svg id="Layer_1" data-name="Layer 1" xmlns="http://www.w3.org/2000/svg" version="1.1" viewBox="0 0 56 54">
  <defs>
    <style>
      .cls-1 {
        fill: #700;
      }

      .cls-1, .cls-2 {
        stroke-width: 0px;
      }

      .cls-3 {
        font-family: AdobeClean-BoldCond, 'Adobe Clean';
        font-size: 16.2px;
        font-weight: 700;
      }

      .cls-3, .cls-2 {
        fill: #fff;
      }
    </style>
  </defs>
  <rect class="cls-1" width="56" height="54" rx="9.9" ry="9.9"/>
  <g>
    <path id="Vector_4" data-name="Vector 4" class="cls-2" d="M45.3,37.3l1.9.4c.7.2,1.3-.7.7-1.3l-1.3-1.4c-.2-.2-.2-.4-.2-.7l.4-1.9c.2-.7-.7-1.3-1.3-.7l-1.4,1.3c-.2.2-.4.2-.7.2l-1.9-.4c-.7-.2-1.3.7-.7,1.3l1.3,1.4c.2.2.2.4.2.7l-.4,1.9c-.2.7.7,1.3,1.3.7l1.4-1.3c.2-.2.4-.2.7-.2Z"/>
    <text class="cls-3" transform="translate(6.4 27.1)"><tspan x="0" y="0">PHOTO</tspan><tspan x="0" y="11.8">SHOP</tspan></text>
  </g>
</svg>