<svg viewBox="0 0 56 54"
    xmlns="http://www.w3.org/2000/svg">
    <rect fill="#001e36" height="54" rx="9.914" width="56"/>
    <path d="m11.636 37.706v-23.643q0-.259.222-.259.59 0 1.406-.018.813-.019 1.757-.037.944-.019 1.998-.037 1.055-.019 2.09-.019a13.9 13.9 0 0 1 4.737.703 8.2 8.2 0 0 1 3.09 1.887 7.2 7.2 0 0 1 1.683 2.609 8.7 8.7 0 0 1 .518 2.978 8.22 8.22 0 0 1 -1.37 4.884 7.73 7.73 0 0 1 -3.7 2.794 14.7 14.7 0 0 1 -5.18.87q-.814 0-1.146-.02-.333-.018-.999-.018v7.29a.295.295 0 0 1 -.333.332h-4.514q-.26 0-.26-.296m5.106-19.462v7.66q.48.036.888.036h1.22a8.7 8.7 0 0 0 2.646-.37 4 4 0 0 0 1.888-1.22 3.55 3.55 0 0 0 .72-2.369 3.74 3.74 0 0 0 -.536-2.035 3.45 3.45 0 0 0 -1.609-1.313 6.9 6.9 0 0 0 -2.701-.463q-.888 0-1.572.019-.686.019-.944.055m26.799 6.179a13 13 0 0 0 -2.666-.777 11.7 11.7 0 0 0 -2.571-.296 4.8 4.8 0 0 0 -1.388.167 1.25 1.25 0 0 0 -.721.462 1.17 1.17 0 0 0 -.185.63 1 1 0 0 0 .222.591 2.5 2.5 0 0 0 .777.61 16 16 0 0 0 1.628.76 16.1 16.1 0 0 1 3.533 1.683 5.4 5.4 0 0 1 1.813 1.905 5.1 5.1 0 0 1 .537 2.368 5.3 5.3 0 0 1 -.888 3.053 5.84 5.84 0 0 1 -2.572 2.053 10.35 10.35 0 0 1 -4.162.74 15 15 0 0 1 -3.127-.296 11.5 11.5 0 0 1 -2.498-.74.48.48 0 0 1 -.259-.444v-3.996a.22.22 0 0 1 .093-.203.18.18 0 0 1 .203.018 10.8 10.8 0 0 0 2.998 1.129 11.7 11.7 0 0 0 2.701.351 4.15 4.15 0 0 0 1.905-.333 1.05 1.05 0 0 0 .61-.962 1.22 1.22 0 0 0 -.554-.925 9.2 9.2 0 0 0 -2.257-1.073 13.6 13.6 0 0 1 -3.275-1.665 5.64 5.64 0 0 1 -1.739-1.942 5.1 5.1 0 0 1 -.537-2.35 5.3 5.3 0 0 1 .778-2.775 5.65 5.65 0 0 1 2.405-2.109 7.6 7.6 0 0 1 3.744-.934 23 23 0 0 1 3.12.045 10.7 10.7 0 0 1 2.443.815.34.34 0 0 1 .222.204 1 1 0 0 1 .037.277v3.737a.25.25 0 0 1 -.11.222.24.24 0 0 1 -.26 0" fill="#31a8ff"/>
</svg>
