<?xml version="1.0" encoding="UTF-8"?>
<svg id="Layer_1" data-name="Layer 1" xmlns="http://www.w3.org/2000/svg" version="1.1" viewBox="0 0 240 240">
  <defs>
    <style>
      .cls-1 {
        stroke: #eb1000;
        stroke-linecap: round;
        stroke-linejoin: round;
        stroke-width: 6px;
      }

      .cls-1, .cls-2 {
        fill: #fff;
      }

      .cls-3 {
        fill: #eb1000;
      }

      .cls-3, .cls-2 {
        stroke-width: 0px;
      }
    </style>
  </defs>
  <path id="Vector" class="cls-3" d="M197,0H43C19.3,0,0,19.3,0,43v153.9c0,23.8,19.3,43,43,43h153.9c23.8,0,43-19.3,43-43V43c0-23.8-19.3-43-43-43h.1Z"/>
  <g>
    <path id="Vector_2" data-name="Vector 2" class="cls-2" d="M179.4,184.1h25.6v8.3h-15.9v6h14v8.3h-14v12.4h-9.7v-35.1h0Z"/>
    <path id="Vector_3" data-name="Vector 3" class="cls-2" d="M208.4,191.8h9.2v27.4h-9.2v-27.4Z"/>
    <path id="Vector_4" data-name="Vector 4" class="cls-2" d="M214.6,186.7l3.3.7c1.3.3,2.2-1.2,1.3-2.2l-2.3-2.5c-.3-.3-.4-.8-.3-1.2l.7-3.3c.3-1.3-1.3-2.2-2.2-1.3l-2.5,2.3c-.3.3-.8.4-1.2.3l-3.3-.7c-1.3-.3-2.2,1.2-1.3,2.2l2.3,2.5c.3.3.4.8.3,1.2l-.7,3.3c-.3,1.3,1.3,2.2,2.2,1.3l2.5-2.3c.3-.3.8-.4,1.2-.3Z"/>
  </g>
  <g>
    <path class="cls-1" d="M174.5,135.8v-46.4c0-4.1-2.2-7.9-5.8-9.9l-40.5-23.2c-3.6-2-8-2-11.6,0l-40.5,23.2c-3.6,2.1-5.8,5.8-5.8,9.9v46.4c0,4.1,2.2,7.9,5.8,9.9l40.5,23.2c3.6,2,8,2,11.6,0l40.5-23.2c3.6-2.1,5.8-5.8,5.8-9.9Z"/>
    <path class="cls-1" d="M122.5,170.4v-57.9"/>
    <path class="cls-1" d="M122.5,112.6l50.5-29.2"/>
    <path class="cls-1" d="M71.9,83.4l50.5,29.2"/>
  </g>
</svg>