<?xml version="1.0" encoding="UTF-8"?>
<svg id="Layer_1" data-name="Layer 1" xmlns="http://www.w3.org/2000/svg" version="1.1" viewBox="0 0 240 240">
  <defs>
    <style>
      .cls-1 {
        fill: #700;
        stroke-width: 0px;
      }

      .cls-2 {
        fill: #fff;
        stroke: #700;
        stroke-linecap: round;
        stroke-linejoin: round;
        stroke-width: 6px;
      }
    </style>
  </defs>
  <path id="Vector" class="cls-1" d="M197,0H43C19.3,0,0,19.3,0,43v153.9c0,23.8,19.3,43,43,43h153.9c23.8,0,43-19.3,43-43V43c0-23.8-19.3-43-43-43h.1Z"/>
  <g>
    <path class="cls-2" d="M172,147.8v-46.4c0-4.1-2.2-7.9-5.8-9.9l-40.5-23.2c-3.6-2-8-2-11.6,0l-40.5,23.2c-3.6,2.1-5.8,5.8-5.8,9.9v46.4c0,4.1,2.2,7.9,5.8,9.9l40.5,23.2c3.6,2,8,2,11.6,0l40.5-23.2c3.6-2.1,5.8-5.8,5.8-9.9Z"/>
    <path class="cls-2" d="M120,182.4v-57.9"/>
    <path class="cls-2" d="M120,124.6l50.5-29.2"/>
    <path class="cls-2" d="M69.5,95.4l50.5,29.2"/>
  </g>
</svg>